<svg xmlns="http://www.w3.org/2000/svg" xmlns:xlink="http://www.w3.org/1999/xlink"><symbol id="avatar" viewBox="0 0 482.9 482.9">
<g>
	<g>
		<path d="M239.7,260.2c0.5,0,1,0,1.6,0c0.2,0,0.4,0,0.6,0c0.3,0,0.7,0,1,0c29.3-0.5,53-10.8,70.5-30.5
			c38.5-43.4,32.1-117.8,31.4-124.9c-2.5-53.3-27.7-78.8-48.5-90.7C280.8,5.2,262.7,0.4,242.5,0h-0.7c-0.1,0-0.3,0-0.4,0h-0.6
			c-11.1,0-32.9,1.8-53.8,13.7c-21,11.9-46.6,37.4-49.1,91.1c-0.7,7.1-7.1,81.5,31.4,124.9C186.7,249.4,210.4,259.7,239.7,260.2z
			 M164.6,107.3c0-0.3,0.1-0.6,0.1-0.8c3.3-71.7,54.2-79.4,76-79.4h0.4c0.2,0,0.5,0,0.8,0c27,0.6,72.9,11.6,76,79.4
			c0,0.3,0,0.6,0.1,0.8c0.1,0.7,7.1,68.7-24.7,104.5c-12.6,14.2-29.4,21.2-51.5,21.4c-0.2,0-0.3,0-0.5,0l0,0c-0.2,0-0.3,0-0.5,0
			c-22-0.2-38.9-7.2-51.4-21.4C157.7,176.2,164.5,107.9,164.6,107.3z"/>
		<path d="M446.8,383.6c0-0.1,0-0.2,0-0.3c0-0.8-0.1-1.6-0.1-2.5c-0.6-19.8-1.9-66.1-45.3-80.9c-0.3-0.1-0.7-0.2-1-0.3
			c-45.1-11.5-82.6-37.5-83-37.8c-6.1-4.3-14.5-2.8-18.8,3.3c-4.3,6.1-2.8,14.5,3.3,18.8c1.7,1.2,41.5,28.9,91.3,41.7
			c23.3,8.3,25.9,33.2,26.6,56c0,0.9,0,1.7,0.1,2.5c0.1,9-0.5,22.9-2.1,30.9c-16.2,9.2-79.7,41-176.3,41
			c-96.2,0-160.1-31.9-176.4-41.1c-1.6-8-2.3-21.9-2.1-30.9c0-0.8,0.1-1.6,0.1-2.5c0.7-22.8,3.3-47.7,26.6-56
			c49.8-12.8,89.6-40.6,91.3-41.7c6.1-4.3,7.6-12.7,3.3-18.8c-4.3-6.1-12.7-7.6-18.8-3.3c-0.4,0.3-37.7,26.3-83,37.8
			c-0.4,0.1-0.7,0.2-1,0.3c-43.4,14.9-44.7,61.2-45.3,80.9c0,0.9,0,1.7-0.1,2.5c0,0.1,0,0.2,0,0.3c-0.1,5.2-0.2,31.9,5.1,45.3
			c1,2.6,2.8,4.8,5.2,6.3c3,2,74.9,47.8,195.2,47.8s192.2-45.9,195.2-47.8c2.3-1.5,4.2-3.7,5.2-6.3
			C447,415.5,446.9,388.8,446.8,383.6z"/>
	</g>
</g>
<g>
</g>
<g>
</g>
<g>
</g>
<g>
</g>
<g>
</g>
<g>
</g>
<g>
</g>
<g>
</g>
<g>
</g>
<g>
</g>
<g>
</g>
<g>
</g>
<g>
</g>
<g>
</g>
<g>
</g>
</symbol><symbol id="facebook" viewBox="0 0 512.001 512.001">
<g>
	<g>
		<path d="M437.02,74.981C388.668,26.628,324.38,0,256.001,0C188.021,0,123.05,26.912,74.981,74.981
			C26.629,123.333,0.001,187.621,0.001,256c0,53.306,16.227,104.399,46.926,147.757c30.02,42.398,71.526,74.321,120.03,92.318
			c3.258,1.209,7.025,0.223,9.267-2.703c1.111-1.452,1.63-3.274,1.63-5.102V342.232c0-4.465-3.62-8.084-8.084-8.084h-67.368v-59.284
			h67.368c4.465,0,8.084-3.62,8.084-8.084V256c0-70.34,66.739-132.042,142.821-132.042h35.032v59.284h-35.032
			c-22.814,0-43.559,6.567-58.413,18.489c-16.436,13.192-25.124,31.958-25.124,54.269v10.779c0,4.465,3.62,8.084,8.084,8.084h31.872
			c4.465,0,8.084-3.62,8.084-8.084c0-4.465-3.62-8.084-8.084-8.084h-23.788V256c0-41.768,36.291-56.589,67.368-56.589h43.116
			c4.465,0,8.084-3.62,8.084-8.084v-75.453c0-4.465-3.62-8.084-8.084-8.084h-43.116c-39.518,0-79.573,15.72-109.895,43.129
			c-31.659,28.619-49.095,65.937-49.095,105.082v2.695H94.316c-4.465,0-8.084,3.62-8.084,8.084v75.453
			c0,4.465,3.62,8.084,8.084,8.084h67.368v126.248C74.182,439.076,16.169,351.887,16.169,256
			c0-132.244,107.588-239.832,239.83-239.832c132.098,0,239.833,107.734,239.833,239.833c0,132.243-107.588,239.83-239.832,239.83
			c-0.885,0-1.782-0.005-2.695-0.017V350.316H363.79c4.465,0,8.084-3.62,8.084-8.084v-75.453c0-4.465-3.62-8.084-8.084-8.084
			h-47.317c-4.465,0-8.084,3.62-8.084,8.084c0,4.465,3.62,8.084,8.084,8.084h39.233v59.284H245.222c-4.465,0-8.084,3.62-8.084,8.084
			v161.437c0,4.325,3.408,7.891,7.729,8.077c4.005,0.171,7.648,0.255,11.135,0.255c68.379,0,132.667-26.628,181.019-74.981
			c48.069-48.07,74.981-113.04,74.981-181.021C512.001,187.621,485.372,123.333,437.02,74.981z"/>
	</g>
</g>
<g>
</g>
<g>
</g>
<g>
</g>
<g>
</g>
<g>
</g>
<g>
</g>
<g>
</g>
<g>
</g>
<g>
</g>
<g>
</g>
<g>
</g>
<g>
</g>
<g>
</g>
<g>
</g>
<g>
</g>
</symbol><symbol id="instagram" viewBox="0 0 512 512">
<g>
	<g>
		<path d="M437.019,74.981C388.667,26.628,324.379,0,256,0S123.333,26.628,74.981,74.981C26.628,123.333,0,187.621,0,256
			s26.628,132.667,74.981,181.019C123.333,485.372,187.621,512,256,512s132.667-26.628,181.019-74.981S512,324.379,512,256
			S485.372,123.333,437.019,74.981z M256,495.832C123.756,495.832,16.168,388.244,16.168,256S123.756,16.168,256,16.168
			S495.832,123.756,495.832,256S388.244,495.832,256,495.832z"/>
	</g>
</g>
<g>
	<g>
		<path d="M347.845,97.011H164.155c-37.024,0-67.144,30.121-67.144,67.144v183.692c0,37.022,30.121,67.143,67.144,67.143h183.692
			c37.022,0,67.143-30.121,67.143-67.144V164.155C414.989,127.131,384.869,97.011,347.845,97.011z M398.821,347.845
			c0,28.108-22.868,50.976-50.976,50.976H164.155c-28.108,0-50.976-22.868-50.976-50.976V164.155
			c0-28.108,22.868-50.976,50.976-50.976h183.692c28.107,0,50.975,22.868,50.975,50.976V347.845z"/>
	</g>
</g>
<g>
	<g>
		<path d="M339.402,251.22c-2.391-42.533-37.002-76.75-79.558-78.669c-49.108-2.214-89.535,38.232-87.292,87.346
			c1.945,42.56,36.19,77.154,78.728,79.51c17.951,0.995,34.762-3.727,48.803-12.494c4.374-2.731,5.087-8.814,1.441-12.459
			c-0.039-0.039-0.077-0.077-0.115-0.115c-2.657-2.658-6.778-3.059-9.971-1.075c-10.491,6.519-22.892,10.241-36.158,10.102
			c-37.455-0.394-67.676-31.844-66.621-69.286c1.061-37.681,33.215-67.721,71.657-65.312c33.126,2.076,60.09,28.49,62.819,61.569
			c1.111,13.475-1.787,26.206-7.61,37.157c-1.667,3.136-1.153,6.982,1.358,9.493c0.041,0.041,0.083,0.083,0.124,0.124
			c3.773,3.773,10.154,2.886,12.675-1.816C336.664,282.269,340.301,267.197,339.402,251.22z"/>
	</g>
</g>
<g>
	<g>
		<circle cx="342.232" cy="158.989" r="21.558"/>
	</g>
</g>
<g>
</g>
<g>
</g>
<g>
</g>
<g>
</g>
<g>
</g>
<g>
</g>
<g>
</g>
<g>
</g>
<g>
</g>
<g>
</g>
<g>
</g>
<g>
</g>
<g>
</g>
<g>
</g>
<g>
</g>
</symbol><symbol id="menu-icon" viewBox="0 0 53 53">
<g>
	<g>
		<path d="M2,13.5h49c1.104,0,2-0.896,2-2s-0.896-2-2-2H2c-1.104,0-2,0.896-2,2S0.896,13.5,2,13.5z"/>
		<path d="M2,28.5h49c1.104,0,2-0.896,2-2s-0.896-2-2-2H2c-1.104,0-2,0.896-2,2S0.896,28.5,2,28.5z"/>
		<path d="M2,43.5h49c1.104,0,2-0.896,2-2s-0.896-2-2-2H2c-1.104,0-2,0.896-2,2S0.896,43.5,2,43.5z"/>
	</g>
</g>
<g>
</g>
<g>
</g>
<g>
</g>
<g>
</g>
<g>
</g>
<g>
</g>
<g>
</g>
<g>
</g>
<g>
</g>
<g>
</g>
<g>
</g>
<g>
</g>
<g>
</g>
<g>
</g>
<g>
</g>
</symbol><symbol id="search" viewBox="0 0 451 451">
<g>
	<path d="M447.05,428l-109.6-109.6c29.4-33.8,47.2-77.9,47.2-126.1C384.65,86.2,298.35,0,192.35,0C86.25,0,0.05,86.3,0.05,192.3
		s86.3,192.3,192.3,192.3c48.2,0,92.3-17.8,126.1-47.2L428.05,447c2.6,2.6,6.1,4,9.5,4s6.9-1.3,9.5-4
		C452.25,441.8,452.25,433.2,447.05,428z M26.95,192.3c0-91.2,74.2-165.3,165.3-165.3c91.2,0,165.3,74.2,165.3,165.3
		s-74.1,165.4-165.3,165.4C101.15,357.7,26.95,283.5,26.95,192.3z"/>
</g>
<g>
</g>
<g>
</g>
<g>
</g>
<g>
</g>
<g>
</g>
<g>
</g>
<g>
</g>
<g>
</g>
<g>
</g>
<g>
</g>
<g>
</g>
<g>
</g>
<g>
</g>
<g>
</g>
<g>
</g>
</symbol><symbol id="shopping-cart" viewBox="0 0 486.569 486.569">
<g>
	<path d="M146.069,320.369h268.1c30.4,0,55.2-24.8,55.2-55.2v-112.8c0-0.1,0-0.3,0-0.4c0-0.3,0-0.5,0-0.8c0-0.2,0-0.4-0.1-0.6
		c0-0.2-0.1-0.5-0.1-0.7s-0.1-0.4-0.1-0.6c-0.1-0.2-0.1-0.4-0.2-0.7c-0.1-0.2-0.1-0.4-0.2-0.6c-0.1-0.2-0.1-0.4-0.2-0.6
		c-0.1-0.2-0.2-0.4-0.3-0.7c-0.1-0.2-0.2-0.4-0.3-0.5c-0.1-0.2-0.2-0.4-0.3-0.6c-0.1-0.2-0.2-0.3-0.3-0.5c-0.1-0.2-0.3-0.4-0.4-0.6
		c-0.1-0.2-0.2-0.3-0.4-0.5c-0.1-0.2-0.3-0.3-0.4-0.5s-0.3-0.3-0.4-0.5s-0.3-0.3-0.4-0.4c-0.2-0.2-0.3-0.3-0.5-0.5
		c-0.2-0.1-0.3-0.3-0.5-0.4c-0.2-0.1-0.4-0.3-0.6-0.4c-0.2-0.1-0.3-0.2-0.5-0.3s-0.4-0.2-0.6-0.4c-0.2-0.1-0.4-0.2-0.6-0.3
		s-0.4-0.2-0.6-0.3s-0.4-0.2-0.6-0.3s-0.4-0.1-0.6-0.2c-0.2-0.1-0.5-0.2-0.7-0.2s-0.4-0.1-0.5-0.1c-0.3-0.1-0.5-0.1-0.8-0.1
		c-0.1,0-0.2-0.1-0.4-0.1l-339.8-46.9v-47.4c0-0.5,0-1-0.1-1.4c0-0.1,0-0.2-0.1-0.4c0-0.3-0.1-0.6-0.1-0.9c-0.1-0.3-0.1-0.5-0.2-0.8
		c0-0.2-0.1-0.3-0.1-0.5c-0.1-0.3-0.2-0.6-0.3-0.9c0-0.1-0.1-0.3-0.1-0.4c-0.1-0.3-0.2-0.5-0.4-0.8c-0.1-0.1-0.1-0.3-0.2-0.4
		c-0.1-0.2-0.2-0.4-0.4-0.6c-0.1-0.2-0.2-0.3-0.3-0.5s-0.2-0.3-0.3-0.5s-0.3-0.4-0.4-0.6c-0.1-0.1-0.2-0.2-0.3-0.3
		c-0.2-0.2-0.4-0.4-0.6-0.6c-0.1-0.1-0.2-0.2-0.3-0.3c-0.2-0.2-0.4-0.4-0.7-0.6c-0.1-0.1-0.3-0.2-0.4-0.3c-0.2-0.2-0.4-0.3-0.6-0.5
		c-0.3-0.2-0.6-0.4-0.8-0.5c-0.1-0.1-0.2-0.1-0.3-0.2c-0.4-0.2-0.9-0.4-1.3-0.6l-73.7-31c-6.9-2.9-14.8,0.3-17.7,7.2
		s0.3,14.8,7.2,17.7l65.4,27.6v61.2v9.7v74.4v66.5v84c0,28,21,51.2,48.1,54.7c-4.9,8.2-7.8,17.8-7.8,28c0,30.1,24.5,54.5,54.5,54.5
		s54.5-24.5,54.5-54.5c0-10-2.7-19.5-7.5-27.5h121.4c-4.8,8.1-7.5,17.5-7.5,27.5c0,30.1,24.5,54.5,54.5,54.5s54.5-24.5,54.5-54.5
		s-24.5-54.5-54.5-54.5h-255c-15.6,0-28.2-12.7-28.2-28.2v-36.6C126.069,317.569,135.769,320.369,146.069,320.369z M213.269,431.969
		c0,15.2-12.4,27.5-27.5,27.5s-27.5-12.4-27.5-27.5s12.4-27.5,27.5-27.5S213.269,416.769,213.269,431.969z M428.669,431.969
		c0,15.2-12.4,27.5-27.5,27.5s-27.5-12.4-27.5-27.5s12.4-27.5,27.5-27.5S428.669,416.769,428.669,431.969z M414.169,293.369h-268.1
		c-15.6,0-28.2-12.7-28.2-28.2v-66.5v-74.4v-5l324.5,44.7v101.1C442.369,280.769,429.669,293.369,414.169,293.369z"/>
</g>
<g>
</g>
<g>
</g>
<g>
</g>
<g>
</g>
<g>
</g>
<g>
</g>
<g>
</g>
<g>
</g>
<g>
</g>
<g>
</g>
<g>
</g>
<g>
</g>
<g>
</g>
<g>
</g>
<g>
</g>
</symbol><symbol id="telegram" viewBox="0 0 512 512">
<g>
	<g>
		<path d="M437.019,74.981C388.667,26.628,324.379,0,256,0S123.333,26.628,74.981,74.981C26.628,123.333,0,187.621,0,256
			s26.628,132.667,74.981,181.019C123.333,485.372,187.621,512,256,512s132.667-26.628,181.019-74.981S512,324.379,512,256
			S485.372,123.333,437.019,74.981z M256,495.832C123.756,495.832,16.168,388.244,16.168,256S123.756,16.168,256,16.168
			S495.832,123.756,495.832,256S388.244,495.832,256,495.832z"/>
	</g>
</g>
<g>
	<g>
		<path d="M400.989,98.637c-2.482-1.87-5.817-2.15-8.577-0.722L79.822,259.599c-2.702,1.397-4.391,4.194-4.371,7.236
			c0.02,3.042,1.747,5.815,4.469,7.176l81.764,40.88v81.006c0,2.12,0.721,4.218,2.18,5.757c1.614,1.703,3.759,2.557,5.905,2.557
			c1.352,0,2.704-0.338,3.927-1.018l93.544-51.969l71.597,30.684c1.523,0.653,3.209,0.923,4.839,0.619
			c3.355-0.627,5.849-3.197,6.485-6.372l18.115-90.577c1-5.003-2.826-9.67-7.928-9.67c-3.854-0.002-7.171,2.718-7.927,6.496
			l-16.162,80.808l-66.295-28.412c-2.297-0.985-4.923-0.85-7.111,0.363l-85,47.223v-72.492c0-3.062-1.73-5.86-4.469-7.231
			l-72.015-36.007l283.53-146.654l-24.605,123.023c-1,5.003,2.826,9.67,7.928,9.67c3.853,0,7.171-2.721,7.928-6.499l27.903-139.517
			C404.662,103.633,403.471,100.506,400.989,98.637z"/>
	</g>
</g>
<g>
	<g>
		<path d="M348.576,164.757c-2.541-3.216-7.089-4.024-10.581-1.873l-140.126,86.232c-2.391,1.471-3.847,4.078-3.847,6.885v86.232
			c-0.001,3.75,2.577,7.006,6.225,7.868c0.621,0.147,1.244,0.218,1.86,0.218c3.007,0,5.837-1.686,7.228-4.47l31.75-63.5
			l106.863-106.863C350.847,172.586,351.117,167.975,348.576,164.757z M228.725,271.842c-0.613,0.614-1.125,1.324-1.513,2.101
			l-17.022,34.043v-47.468l77.636-47.777L228.725,271.842z"/>
	</g>
</g>
<g>
</g>
<g>
</g>
<g>
</g>
<g>
</g>
<g>
</g>
<g>
</g>
<g>
</g>
<g>
</g>
<g>
</g>
<g>
</g>
<g>
</g>
<g>
</g>
<g>
</g>
<g>
</g>
<g>
</g>
</symbol></svg>